<svg xmlns="http://www.w3.org/2000/svg" width="32" height="32" fill="none" viewBox="0 0 32 32"><g clip-path="url(#clip0_975_586)"><g clip-path="url(#clip1_975_586)"><rect width="32" height="32" fill="#ffce27" rx="6" style="fill:color(display-p3 .9981 .8071 .153);fill-opacity:1"/><path fill="#fff" d="M1.11 20.098a.33.33 0 0 1-.223-.082.29.29 0 0 1-.082-.211v-.833q0-.083.047-.246a.63.63 0 0 1 .246-.328l1.22-1.197q.938-.716 1.536-1.208.61-.504.903-.89.293-.388.293-.728 0-.399-.21-.657-.2-.27-.705-.27-.34 0-.574.153a.93.93 0 0 0-.34.375 1.8 1.8 0 0 0-.164.48.33.33 0 0 1-.164.211.5.5 0 0 1-.235.059H1.192a.24.24 0 0 1-.246-.246q.011-.562.234-1.055.234-.492.645-.868.423-.387.997-.598.586-.21 1.313-.21.997 0 1.69.316.702.316 1.066.891.364.563.364 1.325 0 .575-.258 1.08a3.6 3.6 0 0 1-.715.95q-.458.444-1.091.925l-1.079 1.091h3.014q.129 0 .211.082a.27.27 0 0 1 .094.211v1.184a.27.27 0 0 1-.094.211.28.28 0 0 1-.211.082Zm10.817.117q-.845 0-1.466-.234a2.9 2.9 0 0 1-1.032-.668 2.9 2.9 0 0 1-.61-.985 4 4 0 0 1-.246-1.208l-.024-.716v-.821q.012-.422.024-.75a4 4 0 0 1 .246-1.196q.223-.563.633-.974.423-.422 1.033-.657.621-.234 1.442-.234.833 0 1.442.234a2.8 2.8 0 0 1 1.02.657q.423.41.646.973.222.552.246 1.196.024.33.023.751.012.41 0 .82 0 .4-.023.716-.024.645-.246 1.208-.211.563-.622.985a2.8 2.8 0 0 1-1.02.668q-.61.235-1.466.235m0-1.7q.61 0 .88-.387.28-.4.293-1.067.023-.34.023-.716.012-.375 0-.75 0-.375-.023-.692-.012-.645-.293-1.044-.27-.4-.88-.41-.61.01-.88.41t-.293 1.044q-.011.315-.023.692v.75l.023.716q.024.668.305 1.067.282.387.868.387m8.557 1.583a.3.3 0 0 1-.211-.082.28.28 0 0 1-.082-.211V18.48h-3.647a.3.3 0 0 1-.211-.082.29.29 0 0 1-.082-.211v-1.114q0-.107.035-.188.046-.095.094-.176l3.412-4.62a.51.51 0 0 1 .434-.2h1.7q.13 0 .212.082a.27.27 0 0 1 .094.211v4.55h1.032a.28.28 0 0 1 .223.094.27.27 0 0 1 .082.2v1.161a.27.27 0 0 1-.094.211.27.27 0 0 1-.2.082h-1.044v1.325a.27.27 0 0 1-.094.211.28.28 0 0 1-.211.082Zm-2.216-3.284h1.97v-2.768Zm9.612 3.401q-.868 0-1.525-.2-.645-.198-1.067-.55a2.4 2.4 0 0 1-.633-.82 2.4 2.4 0 0 1-.211-1.008q0-.646.317-1.14.328-.492.82-.762a1.9 1.9 0 0 1-.633-.668 2.05 2.05 0 0 1-.211-.95q0-.657.34-1.184.34-.528 1.032-.845t1.771-.316q1.067 0 1.76.316.69.306 1.02.833.34.528.34 1.184 0 .528-.212.95-.21.41-.61.68.517.26.833.763.317.504.317 1.149 0 .705-.387 1.29-.375.586-1.138.938-.762.34-1.923.34m0-1.49q.375 0 .669-.128.305-.141.48-.375a.96.96 0 0 0 .176-.575.95.95 0 0 0-.176-.586 1.14 1.14 0 0 0-.48-.364 1.65 1.65 0 0 0-.669-.129q-.375 0-.68.13a1.14 1.14 0 0 0-.48.364.95.95 0 0 0-.176.586q0 .328.175.574.175.234.48.375.305.129.681.129m0-3.576q.328 0 .598-.117.27-.13.422-.329a.82.82 0 0 0 .152-.492.82.82 0 0 0-.152-.493.9.9 0 0 0-.41-.328 1.5 1.5 0 0 0-.61-.117q-.34 0-.61.117a1 1 0 0 0-.422.328.87.87 0 0 0-.14.493q0 .282.14.492.152.211.422.329.27.117.61.117" style="fill:#fff;fill-opacity:1"/></g></g><defs><clipPath id="clip0_975_586"><path fill="#fff" d="M0 0h32v32H0Z" style="fill:#fff;fill-opacity:1"/></clipPath><clipPath id="clip1_975_586"><rect width="32" height="32" fill="#fff" rx="6" style="fill:#fff;fill-opacity:1"/></clipPath></defs></svg>